HIERARCHY
ROOT Hips
{
	OFFSET 0.000000 0.000000 0.000000
	CHANNELS 6 Xposition Yposition Zposition Zrotation Yrotation Xrotation 
	JOINT LowerBack
	{
		OFFSET 0.000000 0.000000 0.000000
		CHANNELS 3 Zrotation Yrotation Xrotation
		JOINT Spine
		{
			OFFSET 0.028270 2.035590 -0.193380
			CHANNELS 3 Zrotation Yrotation Xrotation
			JOINT Spine1
			{
				OFFSET 0.056720 2.048850 -0.042750
				CHANNELS 3 Zrotation Yrotation Xrotation
				JOINT Neck
				{
					OFFSET 0.000000 0.000000 0.000000
					CHANNELS 3 Zrotation Yrotation Xrotation
					JOINT Neck1
					{
						OFFSET -0.054170 1.746240 0.172020
						CHANNELS 3 Zrotation Yrotation Xrotation
						JOINT Head
						{
							OFFSET 0.104070 1.761360 -0.123970
							CHANNELS 3 Zrotation Yrotation Xrotation
							End Site
							{
								OFFSET 0.000000 0.000000 0.000000
							}
						}
					}
				}
				JOINT LeftShoulder
				{
					OFFSET 0.000000 0.000000 0.000000
					CHANNELS 3 Zrotation Yrotation Xrotation
					JOINT LeftArm
					{
						OFFSET 3.362410 1.200890 -0.311210
						CHANNELS 3 Zrotation Yrotation Xrotation
						JOINT LeftForeArm
						{
							OFFSET 4.983000 -0.000000 -0.000000
							CHANNELS 3 Zrotation Yrotation Xrotation
							JOINT LeftHand
							{
								OFFSET 3.483560 -0.000000 -0.000000
								CHANNELS 3 Zrotation Yrotation Xrotation
								JOINT LeftFingerBase
								{
									OFFSET 0.000000 0.000000 0.000000
									CHANNELS 3 Zrotation Yrotation Xrotation
									JOINT LeftHandIndex1
									{
										OFFSET 0.715260 -0.000000 -0.000000
										CHANNELS 3 Zrotation Yrotation Xrotation
										End Site
										{
											OFFSET 0.000000 0.000000 0.000000
										}
									}
								}
								JOINT LThumb
								{
									OFFSET 0.000000 0.000000 0.000000
									CHANNELS 3 Zrotation Yrotation Xrotation
									End Site
									{
										OFFSET 0.000000 0.000000 0.000000
									}
								}
							}
						}
					}
				}
				JOINT RightShoulder
				{
					OFFSET 0.000000 0.000000 0.000000
					CHANNELS 3 Zrotation Yrotation Xrotation
					JOINT RightArm
					{
						OFFSET -3.136600 1.374050 -0.404650
						CHANNELS 3 Zrotation Yrotation Xrotation
						JOINT RightForeArm
						{
							OFFSET -5.241900 -0.000000 -0.000000
							CHANNELS 3 Zrotation Yrotation Xrotation
							JOINT RightHand
							{
								OFFSET -3.444170 -0.000000 -0.000000
								CHANNELS 3 Zrotation Yrotation Xrotation
								JOINT RightFingerBase
								{
									OFFSET 0.000000 0.000000 0.000000
									CHANNELS 3 Zrotation Yrotation Xrotation
									JOINT RightHandIndex1
									{
										OFFSET -0.622530 -0.000000 -0.000000
										CHANNELS 3 Zrotation Yrotation Xrotation
										End Site
										{
											OFFSET 0.000000 0.000000 0.000000
										}
									}
								}
								JOINT RThumb
								{
									OFFSET 0.000000 0.000000 0.000000
									CHANNELS 3 Zrotation Yrotation Xrotation
									End Site
									{
										OFFSET 0.000000 0.000000 0.000000
									}
								}
							}
						}
					}
				}
			}
		}
	}
}
}
MOTION
Frames: 19
Frame Time: 0.008333
0.118555 16.790103 0.265001 4.230438 72.234430 22.328514 -8.172010 1.005386 0.906500 -2.450228 1.461400 -2.610906 -6.156365 1.396268 1.502462 8.190476 -2.906868 -4.649919 -3.315389 -0.280943 0.623604 0.000000 0.000000 0.000000 -7.746451 14.846077 1.914546 -65.291419 15.654479 -2.152148 -4.761773 -19.475186 -0.031933 -12.384733 6.680016 -0.728479 -0.114763 -0.083734 -0.000000 0.000000 0.000000 0.000000 0.000000 0.000000 0.000000 12.953450 1.730068 0.000377 57.419788 24.967333 24.080091 1.501679 64.096061 0.028574 8.191231 8.164485 0.610394 -0.069222 -0.266968 -0.000000 0.000000 0.000000 0.000000 0.000000 0.000000 0.000000 
0.282910 16.813022 0.295784 4.766510 71.712681 22.797360 -8.545500 0.948196 1.009218 -2.533764 1.423449 -2.606368 -6.209086 1.356948 1.459046 8.209252 -2.886491 -4.578380 -3.356613 -0.284255 0.636029 0.000000 0.000000 0.000000 -7.753251 14.435345 1.928994 -65.181484 14.564200 -1.963164 -4.776882 -18.839849 -0.030610 -12.269339 6.766333 -0.730055 -0.115410 -0.077305 -0.000000 0.000000 0.000000 0.000000 0.000000 0.000000 0.000000 13.123285 1.661175 -0.018124 58.324454 24.220108 24.375244 1.557293 63.193387 0.028295 8.230762 8.081672 0.606605 -0.066334 -0.259945 -0.000000 0.000000 0.000000 0.000000 0.000000 0.000000 0.000000 
0.444767 16.836850 0.324079 5.114537 71.144468 23.072986 -8.841622 0.894966 1.116163 -2.600541 1.385232 -2.599644 -6.256082 1.317499 1.418843 8.199753 -2.860030 -4.509578 -3.395348 -0.287311 0.648145 0.000000 0.000000 0.000000 -7.785103 14.033763 1.941863 -65.070578 13.435761 -1.695613 -4.787848 -18.255834 -0.029218 -12.156968 6.842037 -0.730527 -0.115772 -0.070695 -0.000000 0.000000 0.000000 0.000000 0.000000 0.000000 0.000000 13.256243 1.593153 -0.034567 59.197398 23.497338 24.693102 1.612533 62.245478 0.027953 8.292602 8.003477 0.604712 -0.063942 -0.252512 -0.000000 0.000000 0.000000 0.000000 0.000000 0.000000 0.000000 
0.604371 16.861256 0.349838 5.276931 70.532475 23.159743 -9.056610 0.845272 1.224380 -2.649752 1.346300 -2.591514 -6.298383 1.277418 1.380996 8.167051 -2.828836 -4.444517 -3.431919 -0.290136 0.659872 0.000000 0.000000 0.000000 -7.842453 13.637663 1.953410 -64.955892 12.287925 -1.357973 -4.794619 -17.749226 -0.027779 -12.047061 6.902401 -0.729395 -0.115888 -0.064031 -0.000000 0.000000 0.000000 0.000000 0.000000 0.000000 0.000000 13.359028 1.525802 -0.046637 60.023701 22.800101 25.036501 1.666936 61.267733 0.027552 8.374112 7.935450 0.604815 -0.061979 -0.244818 0.000000 0.000000 0.000000 0.000000 0.000000 0.000000 0.000000 
0.761878 16.886069 0.373208 5.272886 69.882376 23.077946 -9.192914 0.797560 1.333066 -2.681899 1.305410 -2.581392 -6.336879 1.235532 1.348613 8.118693 -2.794186 -4.387795 -3.466489 -0.292682 0.669957 0.000000 0.000000 0.000000 -7.918228 13.266759 1.964103 -64.833957 11.103309 -0.945648 -4.797703 -17.318070 -0.026267 -11.935173 6.939555 -0.725658 -0.115811 -0.057285 -0.000000 0.000000 0.000000 0.000000 0.000000 0.000000 0.000000 13.440727 1.459066 -0.054730 60.791069 22.127757 25.400757 1.719659 60.276993 0.027102 8.476062 7.879303 0.607214 -0.060478 -0.236950 0.000000 0.000000 0.000000 0.000000 0.000000 0.000000 0.000000 
0.917455 16.911256 0.394456 5.123322 69.201382 22.849650 -9.253006 0.750509 1.442446 -2.697541 1.261482 -2.570008 -6.372775 1.190711 1.318725 8.060399 -2.754939 -4.337643 -3.499319 -0.294995 0.678959 0.000000 0.000000 0.000000 -8.009293 12.907854 1.975074 -64.700563 9.904994 -0.474033 -4.797620 -16.986023 -0.024713 -11.820975 6.951175 -0.719019 -0.115617 -0.050580 0.000000 0.000000 0.000000 0.000000 0.000000 0.000000 0.000000 13.507245 1.394330 -0.057095 61.493051 21.472943 25.778817 1.770520 59.282970 0.026598 8.594540 7.837036 0.611810 -0.059349 -0.229012 0.000000 0.000000 0.000000 0.000000 0.000000 0.000000 0.000000 
1.071097 16.936875 0.413965 4.860251 68.498480 22.507045 -9.244697 0.702186 1.553966 -2.698364 1.213057 -2.557314 -6.407094 1.141509 1.290560 7.998860 -2.707791 -4.293566 -3.530543 -0.297084 0.686937 0.000000 0.000000 0.000000 -8.106792 12.562174 1.987721 -64.551775 8.692021 0.050878 -4.795379 -16.757462 -0.023125 -11.703055 6.933846 -0.709274 -0.115392 -0.043930 0.000000 0.000000 0.000000 0.000000 0.000000 0.000000 0.000000 13.564913 1.335113 -0.054083 62.126955 20.825063 26.153625 1.819024 58.295510 0.026053 8.730025 7.805802 0.618301 -0.058613 -0.221042 0.000000 0.000000 0.000000 0.000000 0.000000 0.000000 0.000000 
1.222807 16.963060 0.432141 4.510710 67.782908 22.077224 -9.174751 0.651325 1.669097 -2.685894 1.159218 -2.544093 -6.440941 1.086954 1.259688 7.939110 -2.662623 -4.251743 -3.560639 -0.299048 0.695028 0.000000 0.000000 0.000000 -8.206975 12.191098 2.002528 -64.383980 7.513665 0.595746 -4.791433 -16.669402 -0.021573 -11.585274 6.891318 -0.697026 -0.115204 -0.037585 0.000000 0.000000 0.000000 0.000000 0.000000 0.000000 0.000000 13.621764 1.269777 -0.041734 62.690442 20.192198 26.530703 1.866301 57.306944 0.025455 8.865877 7.790592 0.625993 -0.057909 -0.213154 0.000000 0.000000 0.000000 0.000000 0.000000 0.000000 0.000000 
1.372508 16.989956 0.449504 4.107830 67.063510 21.593426 -9.055816 0.596049 1.789995 -2.662892 1.098712 -2.529549 -6.475069 1.025865 1.227792 7.887158 -2.606923 -4.212324 -3.589372 -0.300838 0.702897 0.000000 0.000000 0.000000 -8.295177 11.820690 2.021505 -64.191382 6.332929 1.173414 -4.787643 -16.696201 -0.020028 -11.467353 6.819552 -0.681977 -0.115171 -0.031380 0.000000 0.000000 0.000000 0.000000 0.000000 0.000000 0.000000 13.680360 1.211897 -0.024347 63.189962 19.550839 26.869797 1.911167 56.329527 0.024819 9.014319 7.778479 0.634883 -0.057517 -0.205271 0.000000 0.000000 0.000000 0.000000 0.000000 0.000000 0.000000 
1.520072 17.017670 0.466426 3.671413 66.348150 21.075157 -8.895169 0.535620 1.917824 -2.631034 1.031104 -2.514105 -6.510230 0.957781 1.191923 7.845834 -2.549224 -4.171639 -3.617070 -0.302534 0.711570 0.000000 0.000000 0.000000 -8.366193 11.420794 2.044934 -63.969997 5.186224 1.756609 -4.784574 -16.861682 -0.018548 -11.355445 6.723257 -0.665124 -0.115355 -0.025507 0.000000 0.000000 0.000000 0.000000 0.000000 0.000000 0.000000 13.745698 1.151307 0.000453 63.629008 18.909449 27.170926 1.954823 55.350917 0.024137 9.161453 7.770018 0.643771 -0.057135 -0.197436 0.000000 0.000000 0.000000 0.000000 0.000000 0.000000 0.000000 
1.665396 17.046306 0.483328 3.219376 65.643933 20.540295 -8.701309 0.469445 2.053051 -2.592269 0.956163 -2.497954 -6.547070 0.882464 1.150548 7.817320 -2.496104 -4.126935 -3.644006 -0.304197 0.721771 0.000000 0.000000 0.000000 -8.413291 10.971303 2.073119 -63.715375 4.096818 2.325191 -4.782728 -17.178650 -0.017170 -11.256795 6.607804 -0.647270 -0.115803 -0.020089 0.000000 0.000000 0.000000 0.000000 0.000000 0.000000 0.000000 13.821561 1.080332 0.033709 64.012958 18.273389 27.429457 1.998205 54.361358 0.023414 9.298275 7.763390 0.652160 -0.056567 -0.189666 0.000000 0.000000 0.000000 0.000000 0.000000 0.000000 0.000000 
1.808404 17.075836 0.500541 2.765251 64.956497 20.002526 -8.481602 0.396728 2.196173 -2.548266 0.873418 -2.480272 -6.586044 0.799529 1.106325 7.803311 -2.438229 -4.078696 -3.669879 -0.305774 0.733136 0.000000 0.000000 0.000000 -8.428884 10.499625 2.107034 -63.419650 3.029730 2.896577 -4.783677 -17.619659 -0.015868 -11.176200 6.472143 -0.628814 -0.116610 -0.014978 0.000000 0.000000 0.000000 0.000000 0.000000 0.000000 0.000000 13.906552 1.009498 0.070905 64.352335 17.627607 27.610672 2.040741 53.366332 0.022659 9.435572 7.745895 0.659648 -0.056030 -0.181862 0.000000 0.000000 0.000000 0.000000 0.000000 0.000000 0.000000 
1.949070 17.106158 0.518310 2.315947 64.290001 19.468542 -8.241046 0.317010 2.346704 -2.500200 0.782626 -2.460638 -6.627635 0.708803 1.060812 7.803864 -2.378511 -4.027030 -3.694778 -0.307270 0.745554 0.000000 0.000000 0.000000 -8.410934 10.010227 2.146536 -63.076506 1.980439 3.469982 -4.788127 -18.177309 -0.014644 -11.120705 6.318868 -0.610256 -0.117822 -0.010177 0.000000 0.000000 0.000000 0.000000 0.000000 0.000000 0.000000 14.001500 0.935814 0.110673 64.653975 16.976292 27.706523 2.082895 52.360840 0.021871 9.570214 7.713650 0.665536 -0.055452 -0.174006 0.000000 0.000000 0.000000 0.000000 0.000000 0.000000 0.000000 
2.087403 17.137071 0.536873 1.876610 63.648583 18.943327 -7.983002 0.230371 2.502799 -2.448898 0.684005 -2.439510 -6.672077 0.610481 1.013021 7.817437 -2.329071 -3.970042 -3.719037 -0.308755 0.759649 0.000000 0.000000 0.000000 -8.359035 9.478758 2.190991 -62.680910 0.983497 4.021443 -4.795308 -18.866945 -0.013536 -11.097471 6.156509 -0.592698 -0.119405 -0.005855 0.000000 0.000000 0.000000 0.000000 0.000000 0.000000 0.000000 14.107456 0.846225 0.154895 64.922459 16.334741 27.729079 2.126020 51.333654 0.021061 9.690660 7.670584 0.669524 -0.054572 -0.166165 0.000000 0.000000 0.000000 0.000000 0.000000 0.000000 0.000000 
2.223460 17.168257 0.556403 1.451815 63.033942 18.430791 -7.711034 0.136597 2.662472 -2.395164 0.577518 -2.416765 -6.719479 0.504570 0.964652 7.842580 -2.292801 -3.908465 -3.742660 -0.310229 0.775206 0.000000 0.000000 0.000000 -8.273950 8.910935 2.240123 -62.226516 0.036494 4.549363 -4.804964 -19.677970 -0.012540 -11.110481 5.989372 -0.576737 -0.121339 -0.002006 0.000000 0.000000 0.000000 0.000000 0.000000 0.000000 0.000000 14.223032 0.738348 0.202241 65.163103 15.706666 27.676336 2.170382 50.285062 0.020240 9.796622 7.616273 0.671315 -0.053380 -0.158363 0.000000 0.000000 0.000000 0.000000 0.000000 0.000000 0.000000 
2.357435 17.199415 0.577082 1.044491 62.446344 17.935210 -7.428008 0.035185 2.824253 -2.339624 0.462848 -2.390615 -6.770240 0.391016 0.924144 7.879070 -2.259570 -3.849611 -3.765228 -0.311541 0.789938 0.000000 0.000000 0.000000 -8.160679 8.374008 2.293958 -61.701244 -0.942269 5.102982 -4.819478 -20.551323 -0.011578 -11.158556 5.813083 -0.561675 -0.123744 0.001698 0.000000 0.000000 0.000000 0.000000 0.000000 0.000000 0.000000 14.345986 0.624957 0.245371 65.381702 15.080117 27.519699 2.214604 49.233303 0.019400 9.905545 7.540912 0.671404 -0.052230 -0.150511 -0.000000 0.000000 0.000000 0.000000 0.000000 0.000000 0.000000 
2.489510 17.230181 0.599054 0.658656 61.885638 17.460513 -7.136631 -0.072840 2.983134 -2.282897 0.341123 -2.363223 -6.823942 0.270745 0.886512 7.923204 -2.249221 -3.788795 -3.787328 -0.312852 0.805483 0.000000 0.000000 0.000000 -8.021751 7.807652 2.351547 -61.105182 -1.869179 5.624008 -4.835184 -21.524449 -0.010728 -11.243382 5.643297 -0.548913 -0.126408 0.004911 0.000000 0.000000 0.000000 0.000000 0.000000 0.000000 0.000000 14.476432 0.484674 0.290302 65.577123 14.479314 27.300730 2.260578 48.164485 0.018569 9.995961 7.461680 0.669695 -0.050685 -0.142822 -0.000000 0.000000 0.000000 0.000000 0.000000 0.000000 0.000000 
2.619891 17.260243 0.622431 0.297093 61.349156 17.011190 -6.839383 -0.187575 3.137703 -2.225484 0.212433 -2.332393 -6.881130 0.144208 0.862292 7.975531 -2.247138 -3.736285 -3.808405 -0.313958 0.818673 0.000000 0.000000 0.000000 -7.867373 7.300614 2.413355 -60.424486 -2.855290 6.177858 -4.855775 -22.518861 -0.009897 -11.358052 5.472951 -0.537349 -0.129520 0.008068 0.000000 0.000000 0.000000 0.000000 0.000000 0.000000 0.000000 14.612537 0.335894 0.328078 65.752736 13.886175 26.985535 2.306260 47.106375 0.017732 10.092086 7.368487 0.667085 -0.049233 -0.135196 -0.000000 0.000000 0.000000 0.000000 0.000000 0.000000 0.000000 
2.748819 17.289275 0.647370 -0.035364 60.834954 16.593047 -6.539461 -0.307441 3.282710 -2.168072 0.078476 -2.300216 -6.941147 0.012913 0.847436 8.033091 -2.266874 -3.688549 -3.828773 -0.314977 0.830769 0.000000 0.000000 0.000000 -7.700142 6.807075 2.478875 -59.661267 -3.838336 6.715991 -4.877852 -23.554151 -0.009140 -11.498458 5.315298 -0.527785 -0.132876 0.010926 0.000000 0.000000 0.000000 0.000000 0.000000 0.000000 0.000000 14.753418 0.164426 0.363319 65.906341 13.316065 26.607405 2.352851 46.052462 0.016914 10.178709 7.276445 0.663776 -0.047580 -0.127815 -0.000000 0.000000 0.000000 0.000000 0.000000 0.000000 0.000000 
